<svg id="Calque_1" data-name="Calque 1" xmlns="http://www.w3.org/2000/svg" viewBox="0 0 1500 1500"><defs><style>.cls-1{fill:#fff;}</style></defs><path class="cls-1" d="M1150.46,382.63a952.85,952.85,0,0,0-235.22-73,3.57,3.57,0,0,0-3.79,1.79,664.54,664.54,0,0,0-29.28,60.16,879.61,879.61,0,0,0-264.19,0,610.61,610.61,0,0,0-29.75-60.16,3.71,3.71,0,0,0-3.78-1.79,950.1,950.1,0,0,0-235.22,73,3.29,3.29,0,0,0-1.55,1.33C197.87,607.78,156.83,826.1,177,1041.71a4,4,0,0,0,1.5,2.7C277.31,1117,373.05,1161.07,467,1190.28a3.74,3.74,0,0,0,4.06-1.33,686,686,0,0,0,59-96,3.66,3.66,0,0,0-2-5.09,631.1,631.1,0,0,1-90.14-43,3.7,3.7,0,0,1-.36-6.14c6-4.54,12.11-9.27,17.9-14a3.56,3.56,0,0,1,3.73-.5c189.13,86.35,393.87,86.35,580.77,0a3.55,3.55,0,0,1,3.78.46c5.78,4.77,11.84,9.54,18,14.08a3.7,3.7,0,0,1-.32,6.14,591.68,591.68,0,0,1-90.19,42.92,3.69,3.69,0,0,0-2,5.14,769.11,769.11,0,0,0,59,96,3.67,3.67,0,0,0,4.06,1.38c94.42-29.21,190.17-73.28,289-145.87a3.69,3.69,0,0,0,1.51-2.66C1346.91,792.48,1282.46,576,1152,384A2.94,2.94,0,0,0,1150.46,382.63ZM558.35,910.42c-56.94,0-103.85-52.27-103.85-116.47s46-116.47,103.85-116.47c58.3,0,104.77,52.73,103.85,116.47C662.2,858.15,616.2,910.42,558.35,910.42Zm384,0c-56.94,0-103.86-52.27-103.86-116.47s46-116.47,103.86-116.47c58.3,0,104.76,52.73,103.85,116.47C1046.19,858.15,1000.64,910.42,942.34,910.42Z"/></svg>