<svg id="Calque_1" data-name="Calque 1" xmlns="http://www.w3.org/2000/svg" viewBox="0 0 1500 1500"><defs><style>.cls-1{fill:#fff;}</style></defs><path class="cls-1" d="M956.44,1190.39H543.56a233.94,233.94,0,0,1-233.95-234V543.56A233.94,233.94,0,0,1,543.56,309.61H956.44a233.94,233.94,0,0,1,234,233.95V956.44a233.94,233.94,0,0,1-234,234ZM543.56,372.61c-94.26,0-170.95,76.69-170.95,170.95V956.44c0,94.26,76.69,171,170.95,171H956.44c94.26,0,171-76.69,171-171V543.56c0-94.26-76.69-170.95-171-170.95Z"/><path class="cls-1" d="M750,1008.17a258.18,258.18,0,1,1,182.55-75.62A256.48,256.48,0,0,1,750,1008.17Zm0-453.34c-107.62,0-195.17,87.55-195.17,195.17S642.38,945.17,750,945.17,945.17,857.62,945.17,750,857.61,554.83,750,554.83Z"/><circle class="cls-1" cx="1000.22" cy="497.56" r="47.11"/></svg>