<svg id="Calque_1" data-name="Calque 1" xmlns="http://www.w3.org/2000/svg" viewBox="0 0 1500 1500"><defs><style>.cls-1{fill:#fff;}</style></defs><path class="cls-1" d="M766.3,774.11l145.18-94.48a6.59,6.59,0,0,1,8.7,1.33l396.36,451.64c3.47,4,2.58,10.69-1.82,13.17a115.06,115.06,0,0,1-56.92,15.14H242.2a115.71,115.71,0,0,1-62.48-18.47c-4.19-2.66-4.95-9.16-1.57-13l394.91-450a6.58,6.58,0,0,1,8.72-1.32L728.14,774a34.46,34.46,0,0,0,38.16.07Z"/><path class="cls-1" d="M149.4,394.7,525.12,641c4.13,2.7,4.88,9.13,1.51,13l-383.46,437c-3.34,3.81-8.93,3-11.35-1.62a161.24,161.24,0,0,1-17.93-74.6V485.28c0-33.26,9.74-63.92,26.17-88.49A6.66,6.66,0,0,1,149.4,394.7Z"/><path class="cls-1" d="M1300.06,347.21c5.88,2.34,6.65,11.45,1.25,15L924.42,607.43l-43.77,28.48L750.89,720.35a6.47,6.47,0,0,1-7.19,0L612.57,634.39l-43.65-28.62L197.79,362.51c-5.37-3.52-4.6-12.56,1.24-14.93a113.93,113.93,0,0,1,43.17-8.49H1257.8A114,114,0,0,1,1300.06,347.21Z"/><path class="cls-1" d="M1386.11,485.28V1014.7a160.47,160.47,0,0,1-21.26,80.65c-2.52,4.34-7.92,4.94-11.15,1.26l-387-440.95c-3.37-3.84-2.61-10.28,1.53-13l382-248.55a6.66,6.66,0,0,1,9.3,2.08C1376.21,420.87,1386.11,451.76,1386.11,485.28Z"/></svg>